<svg xmlns="http://www.w3.org/2000/svg" xmlns:xlink="http://www.w3.org/1999/xlink" version="1.1" id="Layer_1" x="0px" y="0px" width="100px" height="100px" viewBox="0 0 100 100" enable-background="new 0 0 100 100" xml:space="preserve">
<path d="M99.87,100L60.896,0h-49.93v9.189H3.438c-1.827,0-3.309,1.48-3.309,3.308c0,1.827,1.481,3.308,3.309,3.308h7.527v5.954  H3.438c-1.827,0-3.309,1.481-3.309,3.308c0,1.828,1.481,3.308,3.309,3.308h7.527v5.954H3.438c-1.827,0-3.309,1.481-3.309,3.309  c0,1.827,1.481,3.308,3.309,3.308h7.527V46.9H3.438c-1.827,0-3.309,1.481-3.309,3.308c0,1.828,1.481,3.305,3.309,3.305h7.527v5.96  H3.438c-1.827,0-3.309,1.479-3.309,3.306s1.481,3.305,3.309,3.305h7.527v5.96H3.438c-1.827,0-3.309,1.479-3.309,3.306  s1.481,3.305,3.309,3.305h7.527v5.961H3.438c-1.827,0-3.309,1.478-3.309,3.305s1.481,3.306,3.309,3.306h7.527V100H99.87z   M43.314,59.124l17.36-41.473l25.926,66.516c-0.362-0.153-0.724-0.251-1.098-0.27L43.314,59.124z M80.529,88.644l-2.931,4.74h-5.746  l4.458-7.218L80.529,88.644z M85.374,93.384l0.858-1.393l2.367,1.393H85.374z M17.579,6.613h38.797l0.846,2.165l-22.24,53.125  l3.097,1.814l-3.974,6.421c-0.957,1.558-0.479,3.593,1.073,4.556c0.546,0.331,1.146,0.49,1.735,0.49c1.109,0,2.195-0.552,2.82-1.563  l4.054-6.549l5.126,3.011l-4.114,6.666c-0.957,1.551-0.479,3.587,1.079,4.55c0.539,0.331,1.141,0.49,1.729,0.49  c1.109,0,2.195-0.552,2.82-1.569l4.194-6.788l5.139,3.017l-4.268,6.904c-0.957,1.558-0.479,3.594,1.073,4.557  c0.545,0.331,1.146,0.49,1.735,0.49c1.109,0,2.195-0.552,2.82-1.563l4.348-7.033l5.139,3.017l-4.421,7.156  c-0.669,1.085-0.602,2.385,0.012,3.409h-48.62V6.613z"/>
</svg>